<?xml version="1.0" encoding="UTF-8" standalone="no"?><!-- Generator: Gravit.io --><svg xmlns="http://www.w3.org/2000/svg" xmlns:xlink="http://www.w3.org/1999/xlink" style="isolation:isolate" viewBox="0 0 512 512" width="512pt" height="512pt"><defs><clipPath id="_clipPath_35j8NaabL4kFMhnriT4QdOoZ4wSmfjEM"><rect width="512" height="512"/></clipPath></defs><g clip-path="url(#_clipPath_35j8NaabL4kFMhnriT4QdOoZ4wSmfjEM)"><g><path d=" M 51 272 Q 94 227.667 107 224 C 120 220.333 138 207 151 212" fill="none" vector-effect="non-scaling-stroke" stroke-width="5" stroke="rgb(0,0,0)" stroke-linejoin="miter" stroke-linecap="square" stroke-miterlimit="3"/><path d=" M 38 318 L 53 352 L 83 363 Q 141.333 389.667 159 383 Q 176.667 376.333 191 376 L 197 378 L 213 378 L 229 378 L 270 368 L 289 370 L 303 376 L 350 376 Q 367.333 385 373 383 Q 378.667 381 446 405 Q 464.667 404.333 463 394 Q 461.333 383.667 479 370 L 479 361 L 498 339 L 495 294 Q 497.333 263 486 264" fill="none" vector-effect="non-scaling-stroke" stroke-width="5" stroke="rgb(0,0,0)" stroke-linejoin="miter" stroke-linecap="square" stroke-miterlimit="3"/><path d=" M 38 318 Q 26 303 25 294 C 24 285 40 271.667 45 278 Q 50 284.333 89 175 Q 89.333 159.667 97 160 C 104.667 160.333 176.667 163.667 180 160 C 183.333 156.333 213.333 159 243 135 Q 272.667 111 303 124 Q 336.667 113.667 350 116 Q 363.333 118.333 363 124 Q 392 136.333 388 148 Q 384 159.667 407 154 Q 425.333 181 423 188" fill="none" vector-effect="non-scaling-stroke" stroke-width="5" stroke="rgb(0,0,0)" stroke-linejoin="miter" stroke-linecap="square" stroke-miterlimit="3"/><path d=" M 423 186 L 436 200 L 453 222 Q 452 235.667 462 239 Q 472 242.333 487 266" fill="none" vector-effect="non-scaling-stroke" stroke-width="5" stroke="rgb(0,0,0)" stroke-linejoin="miter" stroke-linecap="square" stroke-miterlimit="3"/><path d=" M 276 370 Q 315 276.333 311 273" fill="none" vector-effect="non-scaling-stroke" stroke-width="5" stroke="rgb(0,0,0)" stroke-linejoin="miter" stroke-linecap="square" stroke-miterlimit="3"/><path d=" M 344 262 L 363 268 Q 409.667 249.667 418 253 C 426.333 256.333 453.667 251.667 453 259 Q 452.333 266.333 436 294 L 436 339 L 429 348 L 426 381" fill="none" vector-effect="non-scaling-stroke" stroke-width="5" stroke="rgb(0,0,0)" stroke-linejoin="miter" stroke-linecap="square" stroke-miterlimit="3"/></g></g></svg>