<svg width="96" height="96" xmlns="http://www.w3.org/2000/svg">

 <g>
  <title>background</title>
  <rect fill="none" id="canvas_background" height="402" width="582" y="-1" x="-1"/>
 </g>
 <g>
  <title>Layer 1</title>
  <path fill="#e1e0e0" id="svg_2" d="m93,16l0,-10.6c0,-1.3 -1.1,-2.4 -2.4,-2.4l-40.2,0c-1.3,0 -3.6,0 -4.9,0l-40.1,0c-1.3,0 -2.4,1.1 -2.4,2.4l0,10.6l90,0z"/>
  <path fill="#e1e0e0" id="svg_3" d="m50,80.3l43,-12.5l0,-47.8l-90,0l0,47.8l43,12.5c1,0.3 3,0.3 4,0zm8,-34.3l6,0l0,-7l4,0l0,7l6,0l0,4l-6,0l0,6l-4,0l0,-6l-6,0l0,-4zm-25.5,14c-5.7,0 -10.5,-4.1 -10.5,-11.9c0,-7.6 5,-12.1 10.7,-12.1c2.9,0 5.3,1.4 6.8,3l-2.7,3.3c-1.1,-1.1 -2.4,-1.8 -4,-1.8c-3.1,0 -5.5,2.8 -5.5,7.5c0,4.8 2.2,7.5 5.5,7.5c1.8,0 3.3,-1 4.4,-2.2l2.7,3.3c-1.9,2.2 -4.4,3.4 -7.4,3.4zm8.5,-14l6,0l0,-7l4,0l0,7l6,0l0,4l-6,0l0,6l-4,0l0,-6l-6,0l0,-4z"/>
  <path fill="#e1e0e0" id="svg_4" d="m51.02469,84.162345c-0.9,0.3 -2,0.4 -3.1,0.4c-1.1,0 -2.2,-0.1 -3.1,-0.4l-41.9,-12.2l0,6.6c0,1.3 1.1,2.7 2.4,3.1l40.3,10.7c1.3,0.3 3.4,0.3 4.7,0l40.3,-10.7c1.3,-0.3 2.4,-1.7 2.4,-3.1l0,-6.6l-42,12.2z"/>
 </g>
</svg>