<svg width="96" height="96" xmlns="http://www.w3.org/2000/svg">

 <g>
  <title>background</title>
  <rect fill="none" id="canvas_background" height="402" width="582" y="-1" x="-1"/>
 </g>
 <g>
  <title>Layer 1</title>
  <path fill="#e1e0e0" id="svg_2" d="m93,16l0,-10.6c0,-1.3 -1.1,-2.4 -2.4,-2.4l-40.2,0c-1.3,0 -3.6,0 -4.9,0l-40.1,0c-1.3,0 -2.4,1.1 -2.4,2.4l0,10.6l90,0z"/>
  <path fill="#e1e0e0" id="svg_3" d="m50,80.3l43,-12.5l0,-47.8l-90,0l0,47.8l43,12.5c1,0.3 3,0.3 4,0zm18,-44.3l4,0l0,14.7c0,0.8 0.1,1.1 0.4,1.1c0.2,0 0.1,0 0.3,-0.1l0.4,2.9c-0.4,0.2 -0.9,0.3 -1.7,0.3c-2.6,0 -3.3,-1.8 -3.3,-4.4l0,-14.5l-0.1,0zm-22,5l3.3,0l0.3,2l0.1,0c1,-1 2.2,-1.9 3.8,-1.9c1.8,0 2.9,0.8 3.5,2.3c1.1,-1.2 2.3,-2.2 4,-2.2c2.7,0 4,2 4,5.4l0,8.4l-4,0l0,-8c0,-1.9 -0.6,-2.5 -1.7,-2.5c-0.6,0 -1.3,0.4 -2.3,1.3l0,9.2l-3,0l0,-8c0,-1.9 -0.6,-2.5 -1.7,-2.5c-0.6,0 -1.3,0.4 -2.3,1.3l0,9.2l-4,0l0,-14zm-11,14l-5,0l0,-8c0,-1.9 0,-2.5 -1.1,-2.5c-0.9,0 -1.9,0.5 -1.9,1.3l0,9.2l-4,0l0,-19l4,0l0,4.6l-0.3,2.4c0.9,-0.9 2.4,-1.8 4.1,-1.8c2.8,0 4.2,2 4.2,5.3l0,8.5zm6.6,0c-3.1,0 -4.6,-2.1 -4.6,-5.1l0,-4.9l-1,0l0,-3.4l1.8,-0.1l0.4,-3.5l3.8,0l0,3l2,0l0,4l-2,0l0,4.8c0,1.5 0.2,2.1 1.2,2.1c0.4,0 0.7,-0.1 1,-0.3l0.4,2.9c-0.6,0.2 -1.8,0.5 -3,0.5z"/>
  <path fill="#e1e0e0" id="svg_4" d="m51.1,84.2c-0.9,0.3 -2,0.4 -3.1,0.4c-1.1,0 -2.2,-0.1 -3.1,-0.4l-41.9,-12.2l0,6.6c0,1.3 1.1,2.7 2.4,3.1l40.3,10.7c1.3,0.3 3.4,0.3 4.7,0l40.3,-10.7c1.3,-0.3 2.4,-1.7 2.4,-3.1l0,-6.6l-42,12.2z"/>
 </g>
</svg>