<svg width="96.00000000000001" height="96.00000000000001" xmlns="http://www.w3.org/2000/svg">

 <g>
  <title>background</title>
  <rect fill="none" id="canvas_background" height="402" width="582" y="-1" x="-1"/>
 </g>
 <g>
  <title>Layer 1</title>
  <path fill="#e1e0e0" id="svg_2" d="m50,80.3l43,-12.5l0,-47.8l-90,0l0,47.8l43,12.5c1,0.3 3,0.3 4,0zm16.6,-29.8l-3.3,-1.3c-2.6,-1 -5,-2.9 -5,-6.3c0,-3.8 3.7,-6.9 8.9,-6.9c2.9,0 5.9,1.1 8,3.1l-2.9,3.3c-1.6,-1.2 -3.2,-1.8 -5.2,-1.8c-2,0 -3.2,0.8 -3.2,2.1c0,1.4 1.6,1.9 3.8,2.7l3.2,1.2c3,1.1 4.9,3 4.9,6.3c0,3.8 -3.5,7.2 -9.4,7.2c-3.3,0 -6.7,-1.1 -9.2,-3.3l3.2,-3.6c1.8,1.4 4.1,2.4 6.2,2.4c2.3,0 3.5,-0.9 3.5,-2.2c0.1,-1.6 -1.3,-2.1 -3.5,-2.9zm-35.6,9.5c-6,0 -11,-4.1 -11,-11.9c0,-7.6 5.2,-12.1 11.2,-12.1c3,0 5.5,1.4 7.1,3l-2.8,3.3c-1.2,-1.1 -2.5,-1.8 -4.2,-1.8c-3.2,0 -5.8,2.8 -5.8,7.5c0,4.8 2.3,7.5 5.7,7.5c1.9,0 3.5,-1 4.6,-2.2l2.8,3.3c-1.9,2.2 -4.5,3.4 -7.6,3.4zm16.9,-9.5l-3.1,-1.3c-2.4,-1 -4.8,-2.9 -4.8,-6.3c0,-3.8 3.5,-6.9 8.4,-6.9c2.7,0 5.6,1.1 7.6,3.1l-2.7,3.3c-1.6,-1.2 -3,-1.8 -4.9,-1.8c-1.9,0 -3,0.8 -3,2.1c0,1.4 1.6,1.9 3.6,2.7l3.1,1.2c2.9,1.1 4.7,3 4.7,6.3c0,3.8 -3.3,7.2 -9,7.2c-3.1,0 -6.4,-1.1 -8.8,-3.3l3.1,-3.6c1.7,1.4 3.9,2.4 5.9,2.4c2.2,0 3.3,-0.9 3.3,-2.2c0.1,-1.6 -1.3,-2.1 -3.4,-2.9z"/>
  <path fill="#e1e0e0" id="svg_3" d="m93,16l0,-10.6c0,-1.3 -1.1,-2.4 -2.4,-2.4l-40.2,0c-1.3,0 -3.6,0 -4.9,0l-40.1,0c-1.3,0 -2.4,1.1 -2.4,2.4l0,10.6l90,0z"/>
  <path fill="#e1e0e0" id="svg_4" d="m51.1,84.2c-0.9,0.3 -2,0.4 -3.1,0.4c-1.1,0 -2.2,-0.1 -3.1,-0.4l-41.9,-12.2l0,6.6c0,1.3 1.1,2.7 2.4,3.1l40.3,10.7c1.3,0.3 3.4,0.3 4.7,0l40.3,-10.7c1.3,-0.3 2.4,-1.7 2.4,-3.1l0,-6.6l-42,12.2z"/>
 </g>
</svg>