<svg width="512" height="512" xmlns="http://www.w3.org/2000/svg">

 <g>
  <title>background</title>
  <rect fill="none" id="canvas_background" height="402" width="582" y="-1" x="-1"/>
 </g>
 <g>
  <title>Layer 1</title>
  <path fill="#e1e0e0" id="svg_2" d="m464.8,257.4c0,40.5 0,81 0.1,121.5c0,3.3 -0.7,5.4 -3.8,7.2c-67,40.7 -134,81.5 -200.9,122.3c-2.5,1.5 -4.2,1.5 -6.7,0c-67.1,-40.9 -134.2,-81.8 -201.4,-122.6c-2.4,-1.5 -3.4,-3.1 -3.4,-5.9c0.1,-81.7 0.1,-163.3 0,-245c0,-2.8 0.8,-4.5 3.3,-6c67,-40.7 134,-81.5 200.9,-122.3c2.8,-1.7 4.8,-1.7 7.6,0c66.9,40.9 133.9,81.6 200.9,122.3c2.7,1.7 3.3,3.6 3.3,6.5c0.1,40.6 0.1,81.3 0.1,122zm-13,0c0,-37.8 -0.1,-75.7 0.1,-113.5c0,-3.9 -1,-6.2 -4.5,-8.3c-62.3,-37.8 -124.6,-75.7 -186.8,-113.8c-2.9,-1.8 -4.8,-1.6 -7.6,0.1c-62.4,38.1 -124.8,76.1 -187.3,114c-2.9,1.8 -3.9,3.7 -3.9,7.1c0.1,76.2 0.1,152.3 0,228.5c0,3.6 1.2,5.5 4.3,7.4c62.1,37.6 124.1,75.4 186,113.3c3.7,2.3 6.1,2.1 9.7,-0.1c61.9,-37.9 123.9,-75.6 186,-113.2c3.1,-1.9 4.2,-3.9 4.2,-7.5c-0.2,-38 -0.2,-76 -0.2,-114z"/>
  <path fill="#e1e0e0" id="svg_3" d="m253.6,209.8c-2,-12.7 -1.7,-24.1 2.1,-35.5c8.6,-25.9 35.5,-44.3 62.7,-42.8c15.8,0.9 29.5,6.4 41,17.2c2.5,2.4 4.9,2.9 8,1.8c11.5,-4.2 23,-8.2 34.2,-12.1c-0.7,7.4 -6.3,15 -24.1,33.4c10.8,-2.9 21.6,-5.8 33.2,-9c-3.4,4.4 -6.4,8.8 -10,12.6c-5.4,5.6 -11.1,11 -17.1,16c-2.7,2.3 -3.7,4.4 -3.7,7.9c-1,65.4 -26.8,118.3 -81.1,155.4c-39.4,27 -83.9,34.2 -130.8,26.7c-21.1,-3.4 -40.8,-10.7 -59.3,-21.3c-1.7,-0.9 -3.3,-2 -4.9,-3.6c33.2,1.9 63.2,-6.4 90.9,-27c-28.8,-3.2 -48.3,-17.2 -59.2,-44.8c9.5,0 18.1,0 26.7,0c-30.2,-10.9 -46.7,-31.2 -49.1,-63.2c9.2,2.6 17.9,5 26.5,7.5c0.3,-0.4 0.6,-0.8 0.9,-1.2c-27.2,-23.5 -33.8,-51.3 -18.4,-84.8c34.7,40.6 78,62.9 131.5,66.8z"/>
 </g>
</svg>